<svg width="170" height="170" viewBox="0 0 170 170" fill="none" xmlns="http://www.w3.org/2000/svg">
<path d="M152.671 92.5469C152.314 96.2772 151.661 99.9214 150.74 103.457L164.183 109.163C168.62 111.047 170.691 116.171 168.808 120.608C166.924 125.046 161.799 127.117 157.361 125.233L144.247 119.666C132.331 141.119 109.442 155.639 83.1602 155.639C47.6856 155.639 18.3905 129.188 13.9189 94.9346L31.3594 93.5938C35.1202 118.826 56.8799 138.182 83.1602 138.182C110.263 138.181 132.557 117.595 135.26 91.207L152.671 92.5469ZM62.3428 55.4951C63.1951 54.8485 65.51 54.8031 66.4141 56.1543L95.3604 117.54C96.5179 120.644 93.7402 121.948 92.377 122.203C76.2405 125.225 60.5633 114.502 53.7598 99.9658C46.8026 85.0999 48.879 65.7084 62.3428 55.4951ZM74.4355 49.8916C90.572 46.8695 106.249 57.5925 113.053 72.1289C120.011 86.9938 117.934 106.386 104.469 116.6C103.617 117.246 101.302 117.292 100.396 115.94L71.4492 54.5547C70.2926 51.4498 73.0723 50.1465 74.4355 49.8916ZM15.2754 67.6221C16.1082 66.9611 17.1988 66.7396 18.5469 66.957C19.9119 67.1772 20.9262 67.5919 21.5889 68.2002C22.2346 68.8058 22.608 69.5491 22.708 70.4297L22.8848 70.458C23.7003 68.0825 25.5659 67.1293 28.4814 67.5996C29.998 67.8443 31.1548 68.446 31.9512 69.4043C32.7334 70.3431 32.9887 71.6557 32.7168 73.3408L30.959 84.2354L12 81.1768L13.5859 71.3438C13.8796 69.5238 14.4425 68.2831 15.2754 67.6221ZM155.199 81.7109L150.342 82.4658L149.657 78.0645L135.538 80.2598L134.594 74.1875L148.712 71.9922L148.027 67.5898L152.886 66.834L155.199 81.7109ZM26.5039 73.583C25.4761 73.4173 24.8959 73.7476 24.7627 74.5732L24.3789 76.9492L27.4883 77.4512L27.8633 75.125C28.0018 74.2657 27.5487 73.7515 26.5039 73.583ZM19.0293 72.9736C18.0857 72.8214 17.5533 73.1162 17.4336 73.8574L17.124 75.7793L19.9551 76.2354L20.2568 74.3652C20.3819 73.5901 19.9729 73.1259 19.0293 72.9736ZM141.084 48.2119C142 48.0572 142.828 48.1279 143.569 48.4238C144.326 48.7121 145.014 49.226 145.634 49.9648C146.262 50.7191 146.883 51.7068 147.496 52.9268C148.715 55.3513 149.591 57.6622 150.123 59.8594L145.386 61.3818C144.801 59.5359 144.252 58.1018 143.738 57.0801C143.224 56.0585 142.741 55.2127 142.289 54.542L140.939 55.2207L141.746 57.2793C142.23 58.5452 142.531 59.6555 142.647 60.6094C142.779 61.5556 142.739 62.3884 142.527 63.1064C142.323 63.8398 141.957 64.4629 141.432 64.9756C140.914 65.5034 140.251 65.9705 139.442 66.377C138.283 66.9598 137.231 67.2978 136.284 67.3916C135.338 67.4854 134.551 67.423 133.925 67.2031C133.413 67.0211 132.928 66.7204 132.469 66.3018C132.025 65.8753 131.611 65.3948 131.229 64.8613C130.846 64.3279 130.497 63.7677 130.183 63.1807C129.861 62.6165 129.581 62.0977 129.343 61.625C128.745 60.4358 128.231 59.2616 127.801 58.1025C127.371 56.9433 127.013 55.7949 126.728 54.6582L131.648 53.1582C132.08 55.0425 132.637 56.6634 133.319 58.0205C133.664 58.7067 133.975 59.3056 134.251 59.8164C134.55 60.3346 134.834 60.7841 135.102 61.165L136.475 60.4756L135.438 57.9014C134.984 56.7345 134.7 55.7116 134.583 54.834C134.467 53.9566 134.514 53.1778 134.727 52.498C134.962 51.8257 135.343 51.2334 135.868 50.7207C136.417 50.2157 137.118 49.7478 137.972 49.3184C139.146 48.7279 140.184 48.359 141.084 48.2119ZM27.5 48.8926L24.4424 54.748L26.7344 55.9453L29.5791 50.498L33.5283 52.5605L30.6846 58.0068L32.75 59.0859L36.2344 52.4131L40.5918 54.6885L34.2627 66.8086L17.2402 57.9199L23.498 45.9365L27.5 48.8926ZM54.708 40.8555L50.0273 45.335L47.4033 43.6289L43.7402 47.1348L45.3477 49.8135L40.667 54.293L30.9775 36.9844L37.8408 30.417L54.708 40.8555ZM139.089 39.9609L135.061 42.8809L130.403 38.1963L128.569 40.0186L132.901 44.377L129.741 47.5176L125.409 43.1592L123.756 44.8018L129.062 50.1406L125.576 53.6064L115.938 43.9082L129.559 30.3721L139.089 39.9609ZM38.3613 38.0703L41.1729 42.8223L43.208 40.875L38.6016 37.8398L38.3613 38.0703ZM113.568 20.709L107.123 33.6035L109.069 34.5771C109.772 34.9281 110.291 35.0727 110.627 35.0117C110.978 34.9582 111.307 34.6263 111.612 34.0156L117.325 22.5869L122.821 25.334L118.002 34.9766C117.269 36.4423 116.552 37.6296 115.85 38.5381C115.163 39.4542 114.384 40.0954 113.514 40.4619C112.666 40.8208 111.693 40.8973 110.594 40.6914C109.494 40.4854 108.181 40.0005 106.654 39.2373C105.127 38.4741 103.952 37.7146 103.127 36.959C102.302 36.2034 101.772 35.3753 101.535 34.4746C101.314 33.5815 101.355 32.5815 101.66 31.4746C101.988 30.36 102.519 29.0693 103.252 27.6035L108.071 17.9619L113.568 20.709ZM71.3047 34.1113L65.9756 36.3662L59.0059 31.9199C58.8807 31.8431 58.7477 31.705 58.6074 31.5049C58.4671 31.3048 58.3123 31.0268 58.1436 30.6719L58.0264 30.7227L61.2588 38.3623L55.5996 40.7568L48.1152 23.0723L53.4443 20.8164L60.4141 25.2627C60.5392 25.3395 60.6722 25.4786 60.8125 25.6787C60.9528 25.8788 61.1077 26.156 61.2764 26.5107L61.3945 26.4609L58.1611 18.8213L63.8203 16.4268L71.3047 34.1113ZM87.0508 14.2383C88.2469 13.9721 89.6859 13.9286 91.3662 14.1094C93.0464 14.2902 94.4426 14.6388 95.5547 15.1533C96.6665 15.6678 97.534 16.379 98.1572 17.2871C98.7824 18.1785 99.1801 19.2773 99.3486 20.583C99.5189 21.8717 99.5105 23.3814 99.3242 25.1123C99.1836 26.4191 98.922 27.576 98.5391 28.582C98.1579 29.5711 97.6513 30.444 97.0205 31.2002L99.0986 32.7109L97.1172 36.0518L91.376 34.3525L91.5029 33.1816L88.8291 33.6143C87.1658 33.4353 85.8045 33.0827 84.7451 32.5566C83.7047 32.0156 82.8964 31.3111 82.3203 30.4424C81.763 29.5583 81.4112 28.5157 81.2656 27.3154C81.1219 26.0982 81.1336 24.7172 81.2998 23.1729C81.4879 21.4251 81.8016 19.9397 82.2422 18.7168C82.6847 17.4768 83.2985 16.4868 84.082 15.7471C84.8655 15.0074 85.8549 14.5045 87.0508 14.2383ZM90.7275 19.3203C89.913 19.2327 89.3083 19.2711 88.9131 19.4346C88.5197 19.5811 88.2849 20.0016 88.21 20.6973L87.3555 28.6406L89.9014 28.9141C90.75 29.0054 91.3627 28.9774 91.7393 28.8291C92.1345 28.6656 92.3694 28.2357 92.4443 27.54L93.2988 19.5967L90.7275 19.3203Z" fill="#1a1a1a"/>
</svg>
