<svg preserveAspectRatio="xMidYMid meet" width="161" height="142" overflow="visible" style="display: block;" viewBox="0 0 161 142" fill="none" xmlns="http://www.w3.org/2000/svg">
<g id="Logo">
<path id="Logo_2" d="M140.671 78.5469C140.314 82.2776 139.661 85.9221 138.74 89.458L160.218 98.5742L153.396 114.644L132.247 105.666C120.331 127.119 97.442 141.639 71.1602 141.639C35.6856 141.639 6.3905 115.188 1.91895 80.9346L19.3594 79.5938C23.1202 104.826 44.8799 124.182 71.1602 124.182C98.263 124.181 120.557 103.595 123.26 77.2071L140.671 78.5469ZM51.8535 42.959C52.6524 42.3486 54.8211 42.3062 55.668 43.5821L82.7891 101.546C83.8737 104.477 81.2704 105.709 79.9932 105.949C64.8743 108.803 50.1851 98.6773 43.8105 84.9512C37.2921 70.914 39.2387 52.6029 51.8535 42.959ZM63.1836 37.668C78.3026 34.8144 92.9907 44.9399 99.3652 58.666C105.885 72.7022 103.939 91.0132 91.3232 100.657C90.5248 101.268 88.3557 101.311 87.5068 100.035L60.3857 42.0713C59.302 39.1393 61.9063 37.9086 63.1836 37.668ZM3.27539 53.6221C4.10818 52.9612 5.19884 52.7397 6.54688 52.9571C7.91194 53.1773 8.9262 53.5919 9.58887 54.2002C10.2346 54.8058 10.608 55.5491 10.708 56.4297L10.8848 56.458C11.7003 54.0825 13.5659 53.1293 16.4814 53.5996C17.998 53.8443 19.1548 54.446 19.9512 55.4043C20.7334 56.3432 20.9887 57.6557 20.7168 59.3408L18.959 70.2354L0 67.1768L1.58594 57.3438C1.87956 55.5238 2.44255 54.2831 3.27539 53.6221ZM143.199 67.711L138.342 68.4658L137.657 64.0645L123.538 66.2598L122.594 60.1875L136.712 57.9922L136.027 53.5899L140.886 52.834L143.199 67.711ZM14.5039 59.583C13.4761 59.4173 12.8959 59.7476 12.7627 60.5733L12.3789 62.9492L15.4883 63.4512L15.8633 61.125C16.0018 60.2657 15.5487 59.7516 14.5039 59.583ZM7.0293 58.9737C6.08571 58.8214 5.55333 59.1162 5.43359 59.8574L5.12402 61.7793L7.95508 62.2354L8.25684 60.3653C8.38189 59.5901 7.97288 59.1259 7.0293 58.9737ZM129.084 34.2119C130 34.0572 130.828 34.1279 131.569 34.4239C132.326 34.7121 133.014 35.226 133.634 35.9649C134.262 36.7192 134.883 37.7068 135.496 38.9268C136.715 41.3514 137.591 43.6622 138.123 45.8594L133.386 47.3819C132.801 45.5359 132.252 44.1018 131.738 43.0801C131.224 42.0585 130.741 41.2127 130.289 40.542L128.939 41.2207L129.746 43.2793C130.23 44.5452 130.531 45.6555 130.647 46.6094C130.779 47.5557 130.739 48.3884 130.527 49.1065C130.323 49.8398 129.957 50.4629 129.432 50.9756C128.914 51.5034 128.251 51.9706 127.442 52.377C126.283 52.9598 125.231 53.2978 124.284 53.3916C123.338 53.4854 122.551 53.4231 121.925 53.2031C121.413 53.0211 120.928 52.7205 120.469 52.3018C120.025 51.8753 119.611 51.3948 119.229 50.8614C118.846 50.3279 118.497 49.7677 118.183 49.1807C117.861 48.6166 117.581 48.0977 117.343 47.625C116.745 46.4358 116.231 45.2616 115.801 44.1026C115.371 42.9433 115.013 41.7949 114.728 40.6582L119.648 39.1582C120.08 41.0425 120.637 42.6634 121.319 44.0205C121.664 44.7067 121.975 45.3056 122.251 45.8164C122.55 46.3346 122.834 46.7841 123.102 47.1651L124.475 46.4756L123.438 43.9014C122.984 42.7345 122.7 41.7116 122.583 40.834C122.467 39.9566 122.514 39.1778 122.727 38.4981C122.962 37.8258 123.343 37.2334 123.868 36.7207C124.417 36.2157 125.118 35.7478 125.972 35.3184C127.146 34.7279 128.184 34.3591 129.084 34.2119ZM15.5 34.8926L12.4424 40.7481L14.7344 41.9453L17.5791 36.4981L21.5283 38.5606L18.6846 44.0069L20.75 45.086L24.2344 38.4131L28.5918 40.6885L22.2627 52.8086L5.24023 43.9199L11.498 31.9365L15.5 34.8926ZM42.708 26.8555L38.0273 31.335L35.4033 29.6289L31.7402 33.1348L33.3477 35.8135L28.667 40.293L18.9775 22.9844L25.8408 16.417L42.708 26.8555ZM127.089 25.961L123.061 28.8809L118.403 24.1963L116.569 26.0186L120.901 30.377L117.741 33.5176L113.409 29.1592L111.756 30.8018L117.062 36.1406L113.576 39.6065L103.938 29.9082L117.559 16.3721L127.089 25.961ZM26.3613 24.0703L29.1729 28.8223L31.208 26.875L26.6016 23.8399L26.3613 24.0703ZM101.568 6.70901L95.123 19.6035L97.0693 20.5772C97.7715 20.9281 98.291 21.0727 98.627 21.0117C98.9781 20.9583 99.307 20.6264 99.6123 20.0156L105.325 8.58694L110.821 11.334L106.002 20.9766C105.269 22.4423 104.552 23.6296 103.85 24.5381C103.163 25.4542 102.384 26.0954 101.514 26.4619C100.666 26.8208 99.693 26.8974 98.5938 26.6914C97.4944 26.4854 96.1812 26.0005 94.6543 25.2373C93.1274 24.4741 91.9515 23.7147 91.127 22.959C90.3024 22.2034 89.7719 21.3753 89.5352 20.4746C89.3137 19.5816 89.355 18.5815 89.6602 17.4746C89.9883 16.3601 90.5192 15.0693 91.252 13.6035L96.0713 3.96194L101.568 6.70901ZM59.3047 20.1114L53.9756 22.3662L47.0059 17.9199C46.8807 17.8432 46.7477 17.705 46.6074 17.5049C46.4671 17.3048 46.3123 17.0268 46.1436 16.6719L46.0264 16.7227L49.2588 24.3623L43.5996 26.7569L36.1152 9.07229L41.4443 6.81643L48.4141 11.2627C48.5392 11.3395 48.6722 11.4786 48.8125 11.6787C48.9528 11.8788 49.1077 12.156 49.2764 12.5108L49.3945 12.461L46.1611 4.82131L51.8203 2.42678L59.3047 20.1114ZM75.0508 0.238303C76.2469 -0.0278482 77.6859 -0.0714174 79.3662 0.109397C81.0464 0.29022 82.4426 0.638828 83.5547 1.15334C84.6665 1.66783 85.534 2.37902 86.1572 3.28713C86.7824 4.17848 87.1801 5.27728 87.3486 6.58303C87.5189 7.87167 87.5105 9.38147 87.3242 11.1123C87.1836 12.4191 86.922 13.576 86.5391 14.5821C86.1579 15.5711 85.6513 16.444 85.0205 17.2002L87.0986 18.711L85.1172 22.0518L79.376 20.3526L79.5029 19.1817L76.8291 19.6143C75.1658 19.4353 73.8045 19.0827 72.7451 18.5567C71.7047 18.0156 70.8964 17.3111 70.3203 16.4424C69.763 15.5584 69.4112 14.5157 69.2656 13.3155C69.1219 12.0982 69.1336 10.7173 69.2998 9.17287C69.4879 7.42514 69.8016 5.9397 70.2422 4.71682C70.6847 3.47683 71.2985 2.48685 72.082 1.74709C72.8655 1.00745 73.8549 0.504487 75.0508 0.238303ZM78.7275 5.32033C77.913 5.23271 77.3083 5.27114 76.9131 5.43459C76.5197 5.58108 76.2849 6.00164 76.21 6.69729L75.3555 14.6406L77.9014 14.9141C78.75 15.0054 79.3627 14.9775 79.7393 14.8291C80.1345 14.6656 80.3694 14.2357 80.4443 13.5401L81.2988 5.5967L78.7275 5.32033Z" fill="var(--fill-0, white)"/>
</g>
</svg>
